<svg id="_x33_0" enable-background="new 0 0 64 64" height="512" viewBox="0 0 64 64" width="512" xmlns="http://www.w3.org/2000/svg"><g><path d="m63.863 55-13.863-8.822v3.822h-23.853c1.062-1.883 1.835-3.905 2.305-6h32.548c1.103 0 2-.897 2-2v-39c0-1.103-.897-2-2-2h-50v2.639c0 .472-.281.894-.718 1.076l-.122.051c-.495.207-1.061.095-1.441-.287l-1.787-1.795-4.248 4.248 1.795 1.787c.381.379.494.945.271 1.479-.203.487-.676.802-1.204.802h-2.546v6h2.639c.472 0 .894.281 1.076.718l.051.122c.207.496.094 1.062-.287 1.441l-1.795 1.787 4.248 4.248 1.787-1.795c.38-.381.945-.493 1.481-.27.494.205.8.63.8 1.11v12.639c0 .551-.449 1-1 1s-1-.449-1-1v-6c0-2.206-1.794-4-4-4-1.103 0-2 .897-2 2v9.597c0 4.237 1.418 8.395 4 11.749v12.654h19v-3h24v3.822zm-28.863-36v3c0 .34.033.672.08 1h-.08c-1.103 0-2-.897-2-2s.897-2 2-2zm.002-2h-.002c-.535 0-1.045.11-1.512.301l-.098-.293c-.259-.776-.39-1.585-.39-2.404 0-4.193 3.411-7.604 7.604-7.604h2.792c4.193 0 7.604 3.411 7.604 7.604 0 .819-.131 1.628-.39 2.404l-.098.293c-.467-.191-.977-.301-1.512-.301h-.184c-.414-1.161-1.514-2-2.816-2h-2c-1.654 0-3-1.346-3-3v-3h-2v3c0 .239.017.474.049.703l-1.535.614c-1.517.607-2.499 2.051-2.512 3.683zm13.998 5v-3c1.103 0 2 .897 2 2s-.897 2-2 2h-.08c.047-.328.08-.66.08-1zm-12-4.969c0-.823.494-1.552 1.257-1.857l1.466-.586c.878 1.445 2.466 2.412 4.277 2.412h2c.551 0 1 .449 1 1v4c0 2.757-2.243 5-5 5s-5-2.243-5-5zm2.672 11.563c.73.258 1.511.406 2.328.406s1.598-.148 2.328-.406l.27 1.206c.075.334.198.648.35.944l-2.948 1.179-2.948-1.179c.152-.296.275-.61.35-.944zm15.328 13.406h-7.802l1.624-8.932.551.11c3.26.652 5.627 3.539 5.627 6.864zm-10.148-5.438 1.137.909-.627 3.451-1.217-3.652zm-2.266-.562h-1.172l-.695-.695 1.281-1.025 1.281 1.025zm-3.438.562.708.708-1.217 3.652-.627-3.451zm2.573 1.438h.558l1.333 4h-3.225zm4.674-2.764-2.431-1.944 2.437-.974c.153.095.313.179.479.253zm-8.797-2.919 2.437.974-2.431 1.944-.484-2.665c.166-.074.325-.158.478-.253zm-2.42.751 1.624 8.932h-7.802v-1.958c0-3.326 2.367-6.212 5.627-6.864zm25.822 8.932h-4v-1.958c0-4.275-3.043-7.987-7.235-8.825l-1.657-.332c-.774-.155-1.386-.753-1.559-1.524l-.391-1.744c.917-.681 1.66-1.578 2.156-2.618h.686c2.206 0 4-1.794 4-4 0-.901-.31-1.724-.815-2.393l.322-.966c.327-.98.493-2.002.493-3.036 0-5.296-4.308-9.604-9.604-9.604h-2.792c-5.296 0-9.604 4.308-9.604 9.604 0 1.034.166 2.056.493 3.037l.322.966c-.505.669-.815 1.492-.815 2.393 0 2.206 1.794 4 4 4h.685c.496 1.04 1.24 1.937 2.156 2.618l-.391 1.744c-.173.771-.785 1.369-1.56 1.524l-1.656.332c-2.122.424-3.948 1.587-5.235 3.184v-2.402c0-1.654-1.346-3-3-3-.395 0-.77.081-1.116.22-.344-1.275-1.5-2.22-2.883-2.22-.395 0-.77.081-1.116.22-.345-1.275-1.501-2.22-2.884-2.22-.352 0-.686.072-1 .184v-.823c0-.48.307-.906.842-1.128.493-.208 1.031-.123 1.367.216l1.859 1.867 4.248-4.248-1.867-1.858c-.338-.337-.423-.874-.198-1.41.205-.493.629-.8 1.11-.8h2.639v-6h-2.639c-.48 0-.905-.307-1.128-.842-.207-.494-.123-1.031.216-1.367l1.867-1.859-3.932-3.932h39.616zm-49.488-23.674c-1.529-.881-2.512-2.518-2.512-4.326 0-2.757 2.243-5 5-5s5 2.243 5 5c0 1.808-.983 3.445-2.512 4.326-.539-.799-1.453-1.326-2.488-1.326s-1.949.527-2.488 1.326zm5.488-15.326h3.754l-1.544 1.551c-.337.338-.874.422-1.41.198-.493-.205-.8-.629-.8-1.11zm-6.07 18.388c-1.249-.521-2.674-.238-3.628.721l-.373.375-1.413-1.413.375-.373c.959-.955 1.242-2.379.721-3.629l-.052-.122c-.493-1.183-1.64-1.947-2.921-1.947h-.639v-2h.546c1.338 0 2.535-.798 3.066-2.07.521-1.249.238-2.674-.721-3.628l-.375-.373 1.413-1.413.373.375c.955.958 2.38 1.243 3.629.721l.122-.051c1.183-.494 1.947-1.641 1.947-2.922v-.639h2v.639c0 1.285.799 2.446 2.068 2.972 1.25.524 2.645.27 3.56-.648l.444-.446 1.413 1.413-.446.444c-.918.914-1.172 2.311-.634 3.592.51 1.235 1.671 2.034 2.956 2.034h.639v2h-.639c-1.285 0-2.446.799-2.972 2.068-.524 1.248-.27 2.645.648 3.56l.446.444-1.413 1.413-.444-.446c-.915-.917-2.311-1.171-3.592-.635-.012.005-.023.012-.035.017v-1.115c2.415-1.151 4-3.588 4-6.305 0-3.86-3.14-7-7-7s-7 3.14-7 7c0 2.718 1.585 5.154 4 6.305v1.119c-.023-.012-.045-.027-.069-.037zm-5.93 17.209v-9.597c1.103 0 2 .897 2 2v6c0 1.654 1.346 3 3 3s3-1.346 3-3v-17c0-.551.449-1 1-1s1 .449 1 1v18h2v-10c0-.551.449-1 1-1s1 .449 1 1v10h2v-8c0-.551.449-1 1-1s1 .449 1 1v8h2v-6c0-.551.449-1 1-1s1 .449 1 1v7.169c0 3.334-.842 6.609-2.424 9.534-5.052-2.209-11.136-2.228-16.254.047-2.139-2.94-3.322-6.51-3.322-10.153zm4 22.403v-10.361c4.633-2.109 10.284-2.149 15 0v10.361zm17-3v-6h26v-2.178l8.137 5.178-8.137 5.178v-2.178z"/><path d="m32 54h2v2h-2z"/><path d="m38 54h2v2h-2z"/><path d="m44 54h2v2h-2z"/></g></svg>